<?xml version="1.0" encoding="utf-8"?>
<!-- Generator: Adobe Illustrator 28.0.0, SVG Export Plug-In . SVG Version: 6.00 Build 0)  -->
<svg version="1.1" id="Layer_1" xmlns="http://www.w3.org/2000/svg" xmlns:xlink="http://www.w3.org/1999/xlink" x="0px" y="0px"
	 viewBox="0 0 512 512" style="enable-background:new 0 0 512 512;" xml:space="preserve">
<style type="text/css">
	.st0{fill:#FFFFFF;}
	.st1{fill:url(#SVGID_1_);}
	.st2{fill:url(#SVGID_00000011742392716621016080000011618361596572279465_);}
</style>
<g>
	<circle class="st0" cx="256" cy="256" r="256"/>
	<linearGradient id="SVGID_1_" gradientUnits="userSpaceOnUse" x1="555.3724" y1="467.0627" x2="-104.4304" y2="13.328">
		<stop  offset="0.1753" style="stop-color:#3366B0"/>
		<stop  offset="0.9316" style="stop-color:#2A7DC1"/>
	</linearGradient>
	<path class="st1" d="M510.98,288.4c-3.04,24.11-9.43,47.16-18.7,68.69c-9.96-17.21-29.18-32.47-62.73-42.54
		c0,0,33.71,26.82,44.98,76.5C429.36,463.66,348.83,512,257.02,512c-141.38,0-256-114.62-256-256S115.64,0,257.02,0
		c28.64,0,56.18,4.7,81.89,13.38c-1.38,2.84-2.88,5.83-4.5,9c-21.92,42.93-65.86,74.26-106.69,100.36
		c-10.02,6.4-20.5,12.08-30.47,18.56c-2.33,1.51-4.37,4.72-4.94,7.46c-3.07,14.79-6.47,29.57-8.05,44.54
		c-0.94,8.88-5.03,14.62-11.53,19.29c-10.36,7.46-19.12,10.51-29.81,17.5c-10.28,6.69-10.52,9.23-28.08,7.85
		c-13.15-7.65-17.7-3.04-26.16,2.29c-10.79,6.8-8.67,14.61-8.9,24.23c-0.53,23.44,4.66,23.27,16.89,42.52
		c12.16,19.13,31.78,19.33,50.21,23.35c-8.22-3.82-16.45-7.65-23.85-11.1c6.71-6.45,12.4-12.33,18.56-17.67
		c5.99-5.21,12.57-4.31,19.25-0.76c9.53,5.06,19.2,9.83,29.63,13.35c-5.86-9.79-11.73-19.56-18.13-30.22
		c28.17-11.02,54.7-25.79,86.34-17.39c5.79,1.53,8.87,4.51,9.19,9.85c1.67,27.55-1.76,53.98-18.91,76.85
		c-1.26,1.66-5.42,2.18-7.91,1.67c-6.42-1.31-12.67-3.5-20.52-5.78c1.49,2.4,1.78,3.27,2.38,3.77
		c13.15,11.16,11.84,24.69-3.58,32.62c-1.96,1.01-6.03-0.22-8.18-1.74c-8.6-6.13-18.02-6.37-28.14-5.11
		c15.43,9.91,23.23,26.08,34.39,39.33c1.76,2.1,5.29,3.57,8.14,3.8c25.63,2.11,50.63-2.66,75.97-8.32
		c-9.02-3.16-18.04-6.3-29.92-10.45c17.15-23.4,32.48-45.83,49.47-66.92c8.02-9.97,18.51-18.38,29.06-25.82
		c20.56-14.53,44.34-21.2,69.05-24.56C449.97,281.54,480.51,284.35,510.98,288.4z"/>
	
		<linearGradient id="SVGID_00000062170463901330541180000011991491206897173153_" gradientUnits="userSpaceOnUse" x1="541.5925" y1="284.182" x2="365.0846" y2="162.8006">
		<stop  offset="0.1753" style="stop-color:#3366B0"/>
		<stop  offset="0.9316" style="stop-color:#2A7DC1"/>
	</linearGradient>
	<path style="fill:url(#SVGID_00000062170463901330541180000011991491206897173153_);" d="M512,256c0,7-0.28,13.93-0.84,20.78
		c-3.76-2.39-7.61-4.6-11.63-6.4c-33.76-15.1-69.38-24.58-105.49-32.21c-5.86-1.24-11.65-2.74-17.46-4.12
		c-0.15-0.91-0.28-1.8-0.42-2.7c16.45-6.75,32.78-13.83,49.38-20.19c25.59-9.82,51.81-16.35,79.28-15.61
		C509.51,214.93,512,235.17,512,256z"/>
</g>
</svg>
